<svg width="131" height="14" viewBox="0 0 131 14" fill="none" xmlns="http://www.w3.org/2000/svg">
<g clip-path="url(#clip0_103_89)">
<path d="M91.8052 13.5129C93.2637 13.5567 94.709 13.2277 96.002 12.5575V7.46833H93.3428V10.9902C92.8619 11.1495 92.356 11.2214 91.8493 11.2025C89.5808 11.2025 87.8858 9.56646 87.8858 7C87.8858 4.43354 89.4926 2.88492 91.8493 2.88492C93.2037 2.87208 94.5148 3.35707 95.5294 4.24621V1.44246C94.368 0.774164 93.0404 0.443089 91.6981 0.487066C90.8232 0.446296 89.9494 0.586707 89.1323 0.899337C88.3153 1.21197 87.573 1.68995 86.9528 2.30279C86.3326 2.91562 85.8481 3.64985 85.5303 4.45861C85.2124 5.26738 85.0682 6.13292 85.1068 7C85.1068 11.0089 87.7597 13.5129 91.8052 13.5129ZM111.97 13.3006H120.124V10.9465H114.686V0.699376H111.976L111.97 13.3006ZM130.994 3.05352V0.699376H122.878V13.3006H125.593V8.54862H130.584V6.21945H125.593V3.05352H130.994ZM108.939 8.84835V0.661909H106.223V8.23015C106.223 10.4781 105.045 11.1588 103.986 11.1588C102.927 11.1588 101.749 10.4781 101.749 8.23015V0.661909H99.033V8.84835C99.033 12.3889 101.749 13.4755 103.986 13.4755C106.223 13.4755 108.939 12.3889 108.939 8.84835ZM47.1156 13.3006H55.3957V10.9465H49.7811V8.124H54.8223V5.81356H49.7811V3.05352H55.2634V0.699376H47.1156V13.3006ZM65.3897 8.44246H62.3146L63.8459 4.30241L65.3645 8.44246H65.3897ZM70.1221 13.3006L65.1566 0.699376H62.636L57.6705 13.3006H60.4935L61.4829 10.628H66.1648L67.1478 13.3006H70.1221ZM76.2219 3.05352H80.0027V0.699376H69.7188V3.05352H73.4996V13.3006H76.1714L76.2219 3.05352ZM26.9385 13.5129C28.397 13.5567 29.8423 13.2277 31.1353 12.5575V7.46833H28.4824V10.9902C27.9993 11.1495 27.4914 11.2214 26.9826 11.2025C24.7141 11.2025 23.0254 9.56646 23.0254 7C23.0254 4.43354 24.6259 2.88492 26.9826 2.88492C28.3374 2.86969 29.6493 3.35499 30.6627 4.24621V1.44246C29.5013 0.774164 28.1736 0.443089 26.8314 0.487066C25.9565 0.446296 25.0827 0.586707 24.2656 0.899337C23.4486 1.21197 22.7062 1.68995 22.086 2.30279C21.4658 2.91562 20.9814 3.64985 20.6635 4.45861C20.3457 5.26738 20.2015 6.13292 20.2401 7C20.2401 11.0089 22.893 13.5129 26.9385 13.5129ZM44.5825 13.3006L41.2427 8.38626C41.9764 8.10673 42.6066 7.61203 43.0491 6.96822C43.4916 6.32442 43.7254 5.56216 43.7192 4.78323C43.7192 2.19179 41.772 0.711864 38.9805 0.711864H34.1662V13.3131H36.8633V8.82962H38.6276L41.5011 13.3131L44.5825 13.3006ZM36.8633 2.97859H38.6655C39.9888 2.97859 40.8962 3.70294 40.8962 4.77074C40.8962 5.83854 39.9888 6.55665 38.6655 6.51294H36.8633V2.97859ZM11.0905 11.5085V5.03925H5.3688V6.438H9.60965V10.0785H1.48083V1.39875H11.0905V0H0V11.5085H11.0905ZM2.6844 2.52275V8.96075H8.40608V7.562H4.16523V3.9215H12.2941V12.6012H2.6844V14.0062H13.7749V2.52275H2.6844Z" fill="white"/>
</g>
<defs>
<clipPath id="clip0_103_89">
<rect width="131" height="14" fill="white"/>
</clipPath>
</defs>
</svg>
